<?xml version="1.0" encoding="UTF-8"?>
<!DOCTYPE svg PUBLIC "-//W3C//DTD SVG 1.1//EN" "http://www.w3.org/Graphics/SVG/1.1/DTD/svg11.dtd">
<!-- Creator: CorelDRAW X8 -->
<svg xmlns="http://www.w3.org/2000/svg" xml:space="preserve" width="2641.82mm" height="1250.6mm" version="1.1" style="shape-rendering:geometricPrecision; text-rendering:geometricPrecision; image-rendering:optimizeQuality; fill-rule:evenodd; clip-rule:evenodd"
viewBox="0 0 264182 125060"
 xmlns:xlink="http://www.w3.org/1999/xlink">
 <defs>
  <style type="text/css">
   <![CDATA[
    .fil20 {fill:black;fill-rule:nonzero}
    .fil16 {fill:#133A4F;fill-rule:nonzero}
    .fil12 {fill:#2A015B;fill-rule:nonzero}
    .fil13 {fill:#318E7B;fill-rule:nonzero}
    .fil11 {fill:#3D7067;fill-rule:nonzero}
    .fil19 {fill:#42B1FB;fill-rule:nonzero}
    .fil9 {fill:#465D70;fill-rule:nonzero}
    .fil14 {fill:#4FAE85;fill-rule:nonzero}
    .fil25 {fill:#70BA74;fill-rule:nonzero}
    .fil7 {fill:#759CBA;fill-rule:nonzero}
    .fil8 {fill:#90BDE2;fill-rule:nonzero}
    .fil23 {fill:#934F38;fill-rule:nonzero}
    .fil22 {fill:#9A59B5;fill-rule:nonzero}
    .fil10 {fill:#A8856B;fill-rule:nonzero}
    .fil5 {fill:#A8A08A;fill-rule:nonzero}
    .fil24 {fill:#AAD89C;fill-rule:nonzero}
    .fil6 {fill:#BA9AA1;fill-rule:nonzero}
    .fil4 {fill:#C4905B;fill-rule:nonzero}
    .fil3 {fill:#D49C67;fill-rule:nonzero}
    .fil1 {fill:#DBEBFF;fill-rule:nonzero}
    .fil18 {fill:#FDC3AC;fill-rule:nonzero}
    .fil21 {fill:#FF5D69;fill-rule:nonzero}
    .fil17 {fill:#FF8C26;fill-rule:nonzero}
    .fil15 {fill:white;fill-rule:nonzero}
    .fil0 {fill:#5B6E7C;fill-rule:nonzero;fill-opacity:0.349020}
    .fil2 {fill:#DBEBFF;fill-rule:nonzero;fill-opacity:0.431373}
   ]]>
  </style>
 </defs>
 <g id="DESIGNED_x0020_BY_x0020_FREEPIK">
  <metadata id="CorelCorpID_0Corel-Layer"/>
  <g id="_2462052607280">
   <path class="fil0" d="M247265 98841l-87 -125c-22,-31 -66,-39 -97,-17l-485 340c-32,22 -39,65 -17,97l87 124 197 281 172 246c11,16 28,26 45,29 18,3 37,-1 52,-12l485 -339c32,-22 39,-66 17,-97l-369 -527z"/>
   <g>
    <polygon class="fil1" points="136510,77796 136529,71496 137375,71496 137375,70640 136532,70640 136534,69932 137375,69932 137375,69076 136537,69076 136539,68368 137375,68368 137375,67512 136542,67512 136544,66804 137375,66804 137375,65947 136547,65947 136549,65240 137375,65240 137375,64383 136551,64383 136554,63676 137375,63676 137375,62819 136556,62819 136559,62111 137375,62111 137375,61255 136561,61255 136563,60547 137375,60547 137375,59691 136566,59691 136568,58983 137375,58983 137375,58127 136571,58127 136574,57087 118677,55267 118677,61814 117600,61814 117600,111259 118677,111259 122274,111259 123099,111259 125145,111259 125201,111259 127464,111259 129751,111259 130287,111259 130943,111259 131479,111259 132135,111259 132672,111259 133327,111259 133864,111259 136144,111259 136359,111259 136406,111259 139437,111259 139437,77796 "/>
    <polygon class="fil1" points="91682,92047 91693,88430 92179,88430 92179,87939 91695,87939 91696,87532 92179,87532 92179,87040 91698,87040 91699,86634 92179,86634 92179,86142 91701,86142 91702,85736 92179,85736 92179,85244 91703,85244 91705,84838 92179,84838 92179,84346 91706,84346 91707,83940 92179,83940 92179,83448 91709,83448 91710,83042 92179,83042 92179,82550 91712,82550 91713,82144 92179,82144 92179,81652 91714,81652 91716,81246 92179,81246 92179,80754 91717,80754 91719,80158 81444,79112 81444,82872 80825,82872 80825,111259 81444,111259 83509,111259 83983,111259 85157,111259 85190,111259 86489,111259 87801,111259 88110,111259 88486,111259 88794,111259 89171,111259 89478,111259 89855,111259 90163,111259 91472,111259 91596,111259 91623,111259 93363,111259 93363,92047 "/>
    <polygon class="fil1" points="178359,87435 178373,82950 178975,82950 178975,82340 178375,82340 178376,81836 178975,81836 178975,81227 178378,81227 178380,80723 178975,80723 178975,80113 178382,80113 178383,79609 178975,79609 178975,79000 178385,79000 178387,78496 178975,78496 178975,77886 178389,77886 178390,77382 178975,77382 178975,76772 178392,76772 178394,76269 178975,76269 178975,75659 178396,75659 178397,75155 178975,75155 178975,74545 178399,74545 178401,74041 178975,74041 178975,73432 178403,73432 178405,72691 165663,71395 165663,76057 164896,76057 164896,111259 165663,111259 168224,111259 168811,111259 170268,111259 170308,111259 171919,111259 173547,111259 173929,111259 174395,111259 174777,111259 175244,111259 175626,111259 176093,111259 176475,111259 178098,111259 178252,111259 178285,111259 180443,111259 180443,87435 "/>
    <g>
     <polygon class="fil1" points="260847,102059 260847,81030 264182,81030 264182,102059 "/>
     <g>
      <polygon class="fil1" points="264182,111259 262245,111259 262245,90230 264182,90230 "/>
     </g>
     <polygon class="fil1" points="256602,111259 256602,87637 264182,87637 264182,111259 "/>
     <g>
      <polygon class="fil1" points="261707,90230 260936,90230 260936,88154 260936,84572 260936,74320 259639,74320 259639,68845 259137,68845 259137,74320 258525,74320 258525,68845 258023,68845 258023,74320 252953,74320 252953,75677 251079,75677 251079,75904 250455,75904 250455,78922 247057,78922 247057,79842 247057,111259 255740,111259 255740,111259 261707,111259 261707,109196 262057,109196 262057,108331 261707,108331 261707,107617 262057,107617 262057,106752 261707,106752 261707,106037 262057,106037 262057,105172 261707,105172 261707,104458 262057,104458 262057,103593 261707,103593 261707,102878 262057,102878 262057,102013 261707,102013 261707,101298 262057,101298 262057,100434 261707,100434 261707,99719 262057,99719 262057,98854 261707,98854 261707,98139 262057,98139 262057,97274 261707,97274 261707,96560 262057,96560 262057,95695 261707,95695 "/>
     </g>
    </g>
    <g>
     <polygon class="fil1" points="57662,104576 57662,89298 61997,89298 61997,104576 "/>
     <g>
      <polygon class="fil1" points="62840,95982 62840,96883 63152,96883 63152,98691 64209,98691 64209,111259 58678,111259 58678,95982 "/>
     </g>
     <polygon class="fil1" points="54579,111259 54579,94098 61765,94098 61765,111259 "/>
     <g>
      <polygon class="fil1" points="58287,95982 57728,95982 57728,94474 57728,91872 57728,84424 56785,84424 56785,80447 56421,80447 56421,84424 55976,84424 55976,80447 55611,80447 55611,84424 51928,84424 51928,85410 50567,85410 50567,85575 50113,85575 50113,87767 47645,87767 47645,88436 47645,111259 53952,111259 53952,111259 58287,111259 58287,109761 58542,109761 58542,109132 58287,109132 58287,108613 58542,108613 58542,107985 58287,107985 58287,107465 58542,107465 58542,106837 58287,106837 58287,106318 58542,106318 58542,105690 58287,105690 58287,105171 58542,105171 58542,104542 58287,104542 58287,104023 58542,104023 58542,103395 58287,103395 58287,102876 58542,102876 58542,102247 58287,102247 58287,101728 58542,101728 58542,101100 58287,101100 58287,100581 58542,100581 58542,99952 58287,99952 "/>
     </g>
    </g>
    <g>
     <polygon class="fil1" points="206754,100696 206754,76549 212721,76549 212721,100696 "/>
     <g>
      <polygon class="fil1" points="213881,87113 213881,88537 214311,88537 214311,91395 215766,91395 215766,111259 208152,111259 208152,87113 "/>
     </g>
     <polygon class="fil1" points="202510,111259 202510,84135 212402,84135 212402,111259 "/>
     <g>
      <polygon class="fil1" points="207614,87113 206844,87113 206844,84729 206844,80616 206844,68845 205546,68845 205546,62560 205045,62560 205045,68845 204432,68845 204432,62560 203931,62560 203931,68845 198860,68845 198860,70404 196987,70404 196987,70664 196362,70664 196362,74129 192965,74129 192965,75186 192965,111259 201647,111259 201647,111259 207614,111259 207614,108890 207964,108890 207964,107897 207614,107897 207614,107077 207964,107077 207964,106084 207614,106084 207614,105263 207964,105263 207964,104270 207614,104270 207614,103449 207964,103449 207964,102456 207614,102456 207614,101636 207964,101636 207964,100643 207614,100643 207614,99822 207964,99822 207964,98829 207614,98829 207614,98008 207964,98008 207964,97015 207614,97015 207614,96195 207964,96195 207964,95202 207614,95202 207614,94381 207964,94381 207964,93388 207614,93388 "/>
     </g>
    </g>
    <g>
     <polygon class="fil1" points="74502,101516 74502,79243 78956,79243 78956,101516 "/>
     <g>
      <polygon class="fil1" points="79822,88987 79822,90301 80142,90301 80142,92937 81228,92937 81228,111259 75545,111259 75545,88987 "/>
     </g>
     <polygon class="fil1" points="71334,111259 71334,86241 78717,86241 78717,111259 "/>
     <g>
      <polygon class="fil1" points="75143,88987 74569,88987 74569,86788 74569,82995 74569,72137 73600,72137 73600,66339 73226,66339 73226,72137 72768,72137 72768,66339 72394,66339 72394,72137 68609,72137 68609,73574 67211,73574 67211,73815 66745,73815 66745,77011 64209,77011 64209,77985 64209,111259 70690,111259 70690,111259 75143,111259 75143,109074 75405,109074 75405,108158 75143,108158 75143,107401 75405,107401 75405,106485 75143,106485 75143,105728 75405,105728 75405,104813 75143,104813 75143,104056 75405,104056 75405,103140 75143,103140 75143,102383 75405,102383 75405,101467 75143,101467 75143,100710 75405,100710 75405,99794 75143,99794 75143,99037 75405,99037 75405,98121 75143,98121 75143,97364 75405,97364 75405,96448 75143,96448 75143,95691 75405,95691 75405,94775 75143,94775 "/>
     </g>
    </g>
    <g>
     <g>
      <polygon class="fil1" points="222337,82085 222337,53153 225910,53153 225910,82085 "/>
      <polygon class="fil1" points="219885,88673 219885,58899 231232,58899 231232,88673 "/>
     </g>
     <g>
      <g>
       <polygon class="fil1" points="218605,81762 220665,81762 220665,81125 218605,81125 "/>
       <polygon class="fil1" points="218342,81901 220928,81901 220928,81624 218342,81624 "/>
       <polygon class="fil1" points="217695,86542 221574,86542 221574,81901 217695,81901 "/>
      </g>
      <polygon class="fil1" points="232935,111259 232935,75563 221770,69539 217629,69539 217629,68476 217468,68476 217468,77905 216620,77905 216620,71565 212056,71565 212056,77905 211293,77905 211293,87676 210434,87676 210434,111259 "/>
      <polygon class="fil1" points="224087,70789 224087,111259 232935,111259 232935,75563 "/>
      <polygon class="fil1" points="222131,111259 222131,79561 216860,79561 216860,111259 "/>
      <polygon class="fil1" points="227219,82663 224174,82663 224174,78906 227219,78906 "/>
     </g>
    </g>
    <polygon class="fil1" points="179824,111259 179824,84503 183733,84503 183733,111259 "/>
    <polygon class="fil1" points="170365,87435 177194,87435 177194,83809 170365,83809 "/>
    <polygon class="fil1" points="171231,81937 173347,81937 173347,78311 171231,78311 "/>
    <polygon class="fil1" points="172577,83125 175338,83125 175338,80365 172577,80365 "/>
    <polygon class="fil1" points="169980,81603 170173,81603 170173,71906 169980,71906 "/>
    <polygon class="fil1" points="175183,111259 175183,80298 182414,80298 182414,111259 "/>
    <g>
     <polygon class="fil1" points="183959,57087 187693,57087 187693,52623 183959,52623 "/>
     <g>
      <polygon class="fil1" points="165798,111259 166232,83174 166752,83174 166752,80295 175305,79267 175305,84936 176313,84936 176313,54055 178210,54055 178210,47071 178744,47071 178744,54055 188469,54055 188469,84228 189564,84228 189564,111259 "/>
      <g>
       <polygon class="fil1" points="185958,68959 185283,68959 185283,67354 185958,67354 "/>
       <polygon class="fil1" points="187092,69112 186417,69112 186417,67507 187092,67507 "/>
       <polygon class="fil1" points="184805,71024 184129,71024 184129,69418 184805,69418 "/>
       <polygon class="fil1" points="187092,71024 186417,71024 186417,69418 187092,69418 "/>
       <polygon class="fil1" points="185958,73088 185283,73088 185283,71482 185958,71482 "/>
       <polygon class="fil1" points="184805,75305 184129,75305 184129,73699 184805,73699 "/>
       <polygon class="fil1" points="184805,101146 184129,101146 184129,99540 184805,99540 "/>
       <polygon class="fil1" points="184805,105427 184129,105427 184129,103822 184805,103822 "/>
       <polygon class="fil1" points="185958,75152 185283,75152 185283,73547 185958,73547 "/>
       <polygon class="fil1" points="187092,75152 186417,75152 186417,73547 187092,73547 "/>
       <polygon class="fil1" points="184805,79280 184129,79280 184129,77675 184805,77675 "/>
       <polygon class="fil1" points="187092,79280 186417,79280 186417,77675 187092,77675 "/>
       <polygon class="fil1" points="185958,81345 185283,81345 185283,79739 185958,79739 "/>
       <polygon class="fil1" points="187092,81345 186417,81345 186417,79739 187092,79739 "/>
       <polygon class="fil1" points="187092,90130 186417,90130 186417,88524 187092,88524 "/>
       <polygon class="fil1" points="187092,94258 186417,94258 186417,92653 187092,92653 "/>
       <polygon class="fil1" points="187092,96322 186417,96322 186417,94717 187092,94717 "/>
       <polygon class="fil1" points="184805,83409 184129,83409 184129,81803 184805,81803 "/>
       <polygon class="fil1" points="185958,85473 185283,85473 185283,83867 185958,83867 "/>
      </g>
      <polygon class="fil1" points="173949,110854 168559,110854 168559,86222 173949,86222 "/>
      <g>
       <polygon class="fil1" points="179842,80610 178784,80610 178784,78639 179842,78639 "/>
       <polygon class="fil1" points="170073,83915 169016,83915 169016,81944 170073,81944 "/>
      </g>
      <g>
       <polygon class="fil1" points="167196,90427 170901,90427 170901,89251 167196,89251 "/>
       <polygon class="fil1" points="167196,92574 170901,92574 170901,91398 167196,91398 "/>
       <polygon class="fil1" points="167196,94722 170901,94722 170901,93546 167196,93546 "/>
       <polygon class="fil1" points="167196,96869 170901,96869 170901,95694 167196,95694 "/>
       <polygon class="fil1" points="167196,99017 170901,99017 170901,97841 167196,97841 "/>
       <polygon class="fil1" points="167196,101165 170901,101165 170901,99989 167196,99989 "/>
       <polygon class="fil1" points="167196,103312 170901,103312 170901,102136 167196,102136 "/>
       <polygon class="fil1" points="167196,105460 170901,105460 170901,104284 167196,104284 "/>
       <polygon class="fil1" points="167196,107608 170901,107608 170901,106432 167196,106432 "/>
      </g>
     </g>
     <polygon class="fil1" points="188337,110854 178985,110854 178985,57294 188337,57294 "/>
     <g>
      <polygon class="fil1" points="183657,60856 188846,60856 188846,60161 183657,60161 "/>
      <polygon class="fil1" points="183657,62127 188846,62127 188846,61431 183657,61431 "/>
      <polygon class="fil1" points="183657,63398 188846,63398 188846,62702 183657,62702 "/>
      <polygon class="fil1" points="183657,64669 188846,64669 188846,63973 183657,63973 "/>
      <polygon class="fil1" points="183657,65940 188846,65940 188846,65244 183657,65244 "/>
      <polygon class="fil1" points="183657,67211 188846,67211 188846,66515 183657,66515 "/>
      <polygon class="fil1" points="183657,68482 188846,68482 188846,67786 183657,67786 "/>
      <polygon class="fil1" points="183657,69753 188846,69753 188846,69057 183657,69057 "/>
      <polygon class="fil1" points="183657,71024 188846,71024 188846,70328 183657,70328 "/>
     </g>
     <g>
      <polygon class="fil1" points="183657,72253 188846,72253 188846,71557 183657,71557 "/>
      <polygon class="fil1" points="183657,73524 188846,73524 188846,72828 183657,72828 "/>
      <polygon class="fil1" points="183657,74795 188846,74795 188846,74099 183657,74099 "/>
      <polygon class="fil1" points="183657,76066 188846,76066 188846,75370 183657,75370 "/>
      <polygon class="fil1" points="183657,77337 188846,77337 188846,76641 183657,76641 "/>
      <polygon class="fil1" points="183657,78607 188846,78607 188846,77912 183657,77912 "/>
      <polygon class="fil1" points="183657,79878 188846,79878 188846,79182 183657,79182 "/>
      <polygon class="fil1" points="183657,81149 188846,81149 188846,80453 183657,80453 "/>
      <polygon class="fil1" points="183657,82420 188846,82420 188846,81724 183657,81724 "/>
     </g>
    </g>
    <g>
     <g>
      <g>
       <polygon class="fil1" points="253282,84226 254587,84226 254587,83587 253282,83587 "/>
       <polygon class="fil1" points="253115,84365 254754,84365 254754,84087 253115,84087 "/>
       <polygon class="fil1" points="252705,85087 255164,85087 255164,84365 252705,84365 "/>
       <path class="fil1" d="M253981 80087l92 0 0 3361 -92 0 0 -3361zm-185 0l0 0 92 0 0 3361 -92 0 0 -3361z"/>
      </g>
      <g>
       <polygon class="fil1" points="250787,109421 255769,109421 255769,80408 250787,80408 "/>
       <g>
        <polygon class="fil1" points="252705,84443 253852,84443 253852,81734 252705,81734 "/>
       </g>
       <polygon class="fil1" points="253099,111217 253099,85859 258082,85859 258082,111217 "/>
       <polygon class="fil1" points="250430,111217 250430,93554 257035,93554 257035,111217 "/>
       <polygon class="fil1" points="255246,93902 255246,85859 255935,85859 255935,93902 "/>
       <polygon class="fil1" points="252273,84951 258082,84951 258082,85859 252273,85859 "/>
      </g>
     </g>
     <path class="fil1" d="M245062 85155l0 -19358 -1318 0 0 -920 -297 0 0 -143 -120 0 0 -255 -222 0 0 -1919 -142 0 -79 -1678 -62 0 -78 1678 -142 0 0 1919 -222 0 0 255 -121 0 0 143 -297 0 0 920 -3666 0 -2114 2988 0 16370 8880 0zm-2242 -20748l0 0 -67 0 0 -1719 67 0 0 1719zm134 0l0 0 -67 0 0 -1719 67 0 0 1719z"/>
     <g>
      <g>
       <polygon class="fil1" points="239174,74894 235027,74894 235027,71144 239174,71144 "/>
      </g>
      <polygon class="fil1" points="239892,99592 232107,99592 232107,77270 239892,77270 "/>
      <polygon class="fil1" points="233820,78102 232107,77270 239892,77270 "/>
      <path class="fil1" d="M247632 69472l0 6250 -4141 0 0 -2410 -2263 0 0 -1002 -1203 0 0 1002 -5688 0c-20,39 -38,78 -60,116l0 10717 -2383 0 0 27114 16116 0 0 -41787 -378 0z"/>
      <polygon class="fil1" points="248010,111259 237101,111259 237101,75717 248010,75717 "/>
     </g>
    </g>
    <g>
     <g>
      <polygon class="fil1" points="148591,81506 147052,81506 147052,81030 148591,81030 "/>
      <polygon class="fil1" points="148787,81610 146855,81610 146855,81403 148787,81403 "/>
      <polygon class="fil1" points="149270,85076 146372,85076 146372,81610 149270,81610 "/>
     </g>
     <polygon class="fil1" points="136821,111259 136821,84596 137954,86346 141047,86346 141047,79303 141168,79303 141168,86346 141801,86346 141801,81611 145209,81611 145209,86346 145780,86346 145780,93644 146421,93644 146421,111259 "/>
     <polygon class="fil1" points="142494,111259 142494,87582 146431,87582 146431,111259 "/>
     <g>
      <polygon class="fil1" points="143174,102329 143497,102329 143497,87250 143174,87250 "/>
      <polygon class="fil1" points="143892,102329 144216,102329 144216,87250 143892,87250 "/>
      <polygon class="fil1" points="144611,102329 144934,102329 144934,87250 144611,87250 "/>
      <polygon class="fil1" points="145329,102329 145653,102329 145653,87250 145329,87250 "/>
     </g>
     <polygon class="fil1" points="142810,111259 149902,111259 149902,70783 142810,70783 "/>
     <g>
      <polygon class="fil1" points="143368,73435 146177,73435 146177,69684 143368,69684 "/>
     </g>
     <polygon class="fil1" points="129536,100602 138808,100602 138808,60818 129536,60818 "/>
     <g>
      <polygon class="fil1" points="137223,84048 139671,84048 139671,83811 137223,83811 "/>
     </g>
     <g>
      <polygon class="fil1" points="140345,78477 137328,78379 136476,84308 136476,98184 135739,98184 135739,91569 133527,91569 133527,84145 131175,84145 131175,73312 127282,73312 127282,71185 126468,71185 126468,73312 124935,73312 124935,75722 124121,75722 124121,69472 122526,69472 122526,111259 140930,111259 140930,82415 "/>
     </g>
     <polygon class="fil1" points="141671,78735 143946,78735 143946,75929 141671,75929 "/>
     <g>
      <polygon class="fil1" points="147458,111259 147458,61814 155060,61814 155060,111259 "/>
      <g>
       <g>
        <polygon class="fil1" points="157326,58983 167233,58983 167233,58127 157326,58127 "/>
        <polygon class="fil1" points="157326,60547 167233,60547 167233,59691 157326,59691 "/>
        <polygon class="fil1" points="157326,62111 167233,62111 167233,61255 157326,61255 "/>
        <polygon class="fil1" points="157326,63676 167233,63676 167233,62819 157326,62819 "/>
        <polygon class="fil1" points="157326,65240 167233,65240 167233,64383 157326,64383 "/>
        <polygon class="fil1" points="157326,66804 167233,66804 167233,65948 157326,65948 "/>
        <polygon class="fil1" points="157326,68368 167233,68368 167233,67512 157326,67512 "/>
        <polygon class="fil1" points="157326,69932 167233,69932 167233,69076 157326,69076 "/>
        <polygon class="fil1" points="157326,71496 167233,71496 167233,70640 157326,70640 "/>
       </g>
       <polygon class="fil1" points="148536,111259 166264,111259 166433,57087 148536,55267 "/>
       <polygon class="fil1" points="148536,111259 152132,111259 152338,56969 148536,55267 "/>
       <polygon class="fil1" points="152338,56969 166433,57087 148536,55267 "/>
      </g>
      <g>
       <polygon class="fil1" points="155004,111259 155004,74038 162296,74038 166218,78026 166218,111259 "/>
       <polygon class="fil1" points="166218,78026 162296,74038 155004,74038 "/>
       <polygon class="fil2" points="159609,111259 159609,84260 160145,84260 160145,111259 "/>
       <polygon class="fil2" points="160801,111259 160801,84260 161338,84260 161338,111259 "/>
       <polygon class="fil2" points="161993,111259 161993,84260 162530,84260 162530,111259 "/>
       <polygon class="fil2" points="163186,111259 163186,84260 163722,84260 163722,111259 "/>
      </g>
      <polygon class="fil1" points="152957,111259 157322,111259 157322,85185 152957,85185 "/>
      <polygon class="fil1" points="166002,111259 169295,111259 169295,77796 166002,77796 "/>
     </g>
    </g>
    <g>
     <g>
      <polygon class="fil1" points="118732,81506 117194,81506 117194,81030 118732,81030 "/>
      <polygon class="fil1" points="118929,81610 116997,81610 116997,81403 118929,81403 "/>
      <polygon class="fil1" points="119412,85076 116514,85076 116514,81610 119412,81610 "/>
     </g>
     <polygon class="fil1" points="106963,111259 106963,84596 108096,86346 111189,86346 111189,79303 111309,79303 111309,86346 111943,86346 111943,81611 115351,81611 115351,86346 115922,86346 115922,93644 116563,93644 116563,111259 "/>
     <polygon class="fil1" points="112636,111259 112636,87582 116573,87582 116573,111259 "/>
     <g>
      <polygon class="fil1" points="113315,102329 113639,102329 113639,87250 113315,87250 "/>
      <polygon class="fil1" points="114034,102329 114357,102329 114357,87250 114034,87250 "/>
      <polygon class="fil1" points="114753,102329 115076,102329 115076,87250 114753,87250 "/>
      <polygon class="fil1" points="115471,102329 115795,102329 115795,87250 115471,87250 "/>
     </g>
     <polygon class="fil1" points="112951,111259 120043,111259 120043,70783 112951,70783 "/>
     <g>
      <polygon class="fil1" points="113510,73435 116318,73435 116318,69684 113510,69684 "/>
     </g>
     <polygon class="fil1" points="99677,100602 108950,100602 108950,60818 99677,60818 "/>
     <g>
      <polygon class="fil1" points="107365,84048 109813,84048 109813,83811 107365,83811 "/>
     </g>
     <g>
      <polygon class="fil1" points="110486,78477 107470,78379 106618,84308 106618,98184 105881,98184 105881,91569 103668,91569 103668,84145 101316,84145 101316,73312 97424,73312 97424,71185 96609,71185 96609,73312 95077,73312 95077,75722 94262,75722 94262,69472 92668,69472 92668,111259 111072,111259 111072,82415 "/>
     </g>
    </g>
    <g>
     <g>
      <polygon class="fil1" points="208289,87597 207065,87597 207065,87218 208289,87218 "/>
      <polygon class="fil1" points="208445,87679 206909,87679 206909,87514 208445,87514 "/>
      <polygon class="fil1" points="208829,90436 206525,90436 206525,87679 208829,87679 "/>
     </g>
     <polygon class="fil1" points="198929,111259 198929,90054 199830,91445 202289,91445 202289,85844 202385,85844 202385,91445 202889,91445 202889,87680 205600,87680 205600,91445 206053,91445 206053,97250 206563,97250 206563,111259 "/>
     <polygon class="fil1" points="203440,111259 203440,92429 206571,92429 206571,111259 "/>
     <g>
      <polygon class="fil1" points="203980,104157 204238,104157 204238,92165 203980,92165 "/>
      <polygon class="fil1" points="204552,104157 204809,104157 204809,92165 204552,92165 "/>
      <polygon class="fil1" points="205124,104157 205381,104157 205381,92165 205124,92165 "/>
      <polygon class="fil1" points="205695,104157 205952,104157 205952,92165 205695,92165 "/>
     </g>
     <polygon class="fil1" points="203691,111259 209331,111259 209331,79068 203691,79068 "/>
     <g>
      <polygon class="fil1" points="204135,81177 206369,81177 206369,78195 204135,78195 "/>
     </g>
     <polygon class="fil1" points="193134,102784 200508,102784 200508,71144 193134,71144 "/>
     <g>
      <polygon class="fil1" points="199248,89618 201195,89618 201195,89430 199248,89430 "/>
     </g>
     <g>
      <polygon class="fil1" points="201730,85188 199332,85109 198654,89825 198654,100860 198068,100860 198068,95600 196308,95600 196308,89695 194438,89695 194438,81080 191342,81080 191342,79388 190694,79388 190694,81080 189475,81080 189475,82997 188827,82997 188827,78026 187560,78026 187560,111259 202196,111259 202196,88320 "/>
     </g>
     <polygon class="fil1" points="202786,85393 204595,85393 204595,83161 202786,83161 "/>
    </g>
   </g>
   <polygon class="fil3" points="264182,109458 0,109458 0,125059 264182,125059 "/>
   <polygon class="fil4" points="264182,116511 0,116511 0,125059 264182,125059 "/>
   <g>
    <g>
     <path class="fil5" d="M193014 36171c0,0 0,0 0,0l-1535 -1998c0,0 0,0 1,1l-253 -329c-161,-210 -392,-335 -635,-366 -244,-32 -499,29 -709,190l-450 346 -3990 3065 -61 47c-2296,1765 -4080,4111 -5166,6796l0 1 160 207 92 121 262 341 41 53 343 446c2874,-358 5601,-1477 7898,-3241l60 -47 191 -146 4249 -3265c420,-323 499,-925 176,-1345l-674 -877z"/>
     <path class="fil6" d="M181454 39131l-2678 -981c-153,-56 -323,22 -379,175l-2650 7231c-82,223 -114,452 -103,675 11,224 65,441 158,641 112,242 286,452 500,621l-44 118 -63 171 -41 -15c-52,-19 -110,8 -130,61l-296 808c-19,52 8,110 61,130l1086 398c52,19 111,-8 130,-61l296 -808c19,-52 -8,-110 -60,-130l-41 -15 106 -289c723,24 1412,-404 1674,-1120l2650 -7231c56,-153 -22,-323 -176,-379z"/>
     <path class="fil7" d="M197249 37885c-3,-79 -18,-166 -53,-267 -4,-11 -10,-23 -14,-33 -35,-96 -85,-200 -146,-309 -14,-26 -27,-51 -43,-77 -71,-121 -154,-247 -252,-378 -5,-7 -7,-12 -12,-19 0,1 -1,1 -1,1 -132,-176 -283,-358 -455,-542 -101,-109 -209,-217 -322,-325 -134,-128 -270,-248 -404,-358l786 -1611 -6 -3c2,-2 8,-1 9,-3 18,-37 -31,-98 -110,-137 -78,-39 -156,-41 -175,-4 -1,2 4,6 3,9l-7 -3 -724 1575 0 0c-736,-558 -1398,-813 -1617,-584l-1 0c-1,2 -3,3 -4,5l-137 144c0,0 -1,1 -2,2l-130 137c-75,79 -90,207 -54,369l-275 346 -10 -20 -1244 1561c-15,21 -26,45 -34,73l-113 141c-21,29 -34,65 -39,107l-1228 1458 -267 331 -200 247c-180,241 221,943 888,1578 125,118 251,227 376,325 544,425 1056,638 1244,481l306 -273 1316 -1275 272 -243c66,-1 119,-17 159,-49l134 -119c28,-9 52,-21 73,-38l1496 -1322c-7,-3 -14,-5 -20,-8l328 -290 3 -3c164,28 291,6 365,-73l133 -139 141 -148c42,-45 59,-111 65,-185 1,-17 2,-34 2,-52z"/>
     <path class="fil7" d="M202014 26512c-72,8 -151,28 -240,67 -10,4 -20,11 -30,15 -84,40 -176,93 -271,157 -23,15 -44,28 -67,45 -106,74 -215,159 -328,258 -5,4 -10,7 -16,12 1,0 1,1 1,1 -151,134 -307,285 -463,456 -92,100 -183,206 -273,318 -107,132 -207,264 -298,395l-1531 -601 -2 5c-2,-1 -1,-6 -3,-7 -35,-14 -87,35 -117,110 -30,75 -26,146 8,160 3,1 6,-3 9,-3l-3 6 1493 548c-456,714 -642,1338 -415,1521l0 1c1,1 3,2 5,3l141 115c0,0 1,1 2,2l135 109c78,62 195,67 341,22l336 227 -17 10 1518 1024c20,12 44,21 69,25l138 93c28,17 61,27 100,28l1423 1017 323 220 240 165c233,147 846,-271 1377,-927 100,-123 190,-247 270,-368 350,-528 507,-1012 350,-1173l-272 -259 -1262 -1111 -242 -231c-6,-60 -25,-108 -57,-141l-119 -115c-9,-25 -22,-46 -39,-64l-1318 -1271c-2,7 -4,13 -6,19l-289 -279 -3 -2c14,-152 -16,-267 -93,-329l-137 -111 -146 -118c-44,-36 -106,-46 -174,-46 -16,0 -31,0 -48,2z"/>
     <path class="fil8" d="M166207 36951c-73,2 -153,15 -245,47 -10,3 -21,9 -31,13 -87,32 -183,78 -283,133 -24,13 -47,25 -71,39 -111,66 -227,142 -348,231 -6,4 -11,6 -17,11 1,0 1,1 2,1 -162,120 -330,258 -499,416 -100,92 -200,191 -299,295 -117,122 -228,246 -329,369l-1476 -724 -3 5c-2,-2 -1,-7 -3,-8 -33,-17 -89,28 -125,100 -36,72 -38,144 -5,160 2,2 6,-2 9,-2l-3 6 1443 669c-514,673 -750,1280 -539,1481l0 1c1,1 2,3 4,4l132 125c0,1 1,1 2,2l125 120c72,69 189,84 338,51l317 253 -19 9 1429 1145c20,14 42,24 68,31l129 103c26,20 59,32 97,37l1336 1130 303 246 226 183c220,166 865,-200 1449,-810 109,-114 209,-230 299,-345 392,-497 588,-967 445,-1140l-250 -281 -1167 -1210 -222 -250c-1,-61 -16,-110 -45,-146l-109 -124c-8,-25 -19,-47 -34,-66l-1210 -1376c-2,7 -4,13 -7,19l-265 -302 -3 -3c26,-150 6,-266 -66,-335l-127 -122 -136 -129c-41,-40 -101,-55 -169,-61 -16,-1 -31,-2 -48,-1z"/>
     <path class="fil6" d="M177985 18406c65,-30 134,-75 205,-141 8,-7 16,-16 23,-24 68,-64 137,-144 207,-235 17,-22 33,-41 49,-64 76,-104 152,-220 227,-350 4,-6 8,-11 11,-17 0,0 -1,0 -1,-1 100,-175 199,-368 292,-580 54,-125 106,-255 156,-389 58,-160 110,-317 154,-471l1643 76 0 -6c2,1 4,6 6,6 37,2 71,-61 75,-142 4,-80 -22,-147 -60,-149 -2,0 -4,6 -7,6l1 -7 -1590 -37c202,-823 176,-1473 -97,-1574l0 0c-2,-1 -4,-2 -6,-2l-171 -63c0,0 -1,0 -2,-1l-163 -60c-94,-34 -207,-1 -330,89l-391 -106 13 -15 -1767 -480c-24,-5 -48,-6 -74,-2l-160 -44c-33,-7 -67,-5 -104,6l-1675 -504 -376 -104 -281 -78c-268,-64 -714,529 -1005,1321 -55,148 -100,295 -137,435 -161,613 -153,1122 47,1223l341 158 1552 645 304 140c25,55 58,94 99,116l150 70c17,20 36,36 58,47l1658 779c-1,-7 -1,-13 -1,-20l363 171 4 2c36,148 101,247 194,281l166 60 176 65c53,20 115,10 179,-12 15,-5 29,-10 45,-18z"/>
     <path class="fil7" d="M180138 47874c-39,-65 -123,-86 -189,-47l-151 90 -16 -25 19 -11 -221 -369c268,-667 -494,-2569 -814,-3103l-76 -127 1 0 -2397 -4004 0 0 -352 -587c-148,-248 -526,-294 -843,-104l-19 11c0,0 0,0 0,0l-2007 1202c0,0 0,0 0,0l-1243 744c-318,190 -455,545 -307,792l352 588 -31 18 2397 4004 30 -19 76 127c80,134 222,332 402,556 538,670 1412,1568 1948,1628l236 394 -151 91c-65,39 -87,123 -48,189l639 1066c39,65 123,86 189,47l3167 -1896c65,-39 87,-123 48,-189l-639 -1066z"/>
     <path class="fil7" d="M180599 33533c60,-46 72,-132 27,-193l-107 -141 24 -18 13 18 344 -259c691,195 2501,-765 2998,-1140l118 -89 1 1 3726 -2808 0 -1 547 -412c230,-174 236,-554 13,-850l-13 -17c0,0 0,0 0,0l-1408 -1868c0,0 0,0 0,0l-872 -1157c-223,-296 -590,-395 -820,-221l-547 412 -22 -28 -3726 2808 21 29 -118 89c-124,93 -306,256 -509,458 -610,607 -1410,1571 -1412,2110l-367 277 -107 -141c-45,-61 -132,-73 -192,-27l-993 748c-60,46 -73,132 -27,193l2222 2948c46,61 132,73 193,27l993 -748z"/>
     <path class="fil6" d="M203762 36187c-76,7 -131,75 -124,150l16 176 -30 3 -2 -22 -428 40c-486,-529 -2530,-662 -3150,-604l-147 14 0 -1 -4646 435 0 1 -682 64c-287,27 -492,347 -457,716l2 21c0,0 0,0 0,0l218 2329c0,0 0,0 0,0l135 1443c34,369 295,646 582,619l682 -64 3 35 4646 -435 -3 -35 147 -14c155,-14 395,-57 674,-123 838,-196 2025,-597 2310,-1055l457 -43 17 176c7,76 74,131 150,124l1237 -116c76,-7 131,-74 124,-150l-344 -3675c-7,-76 -74,-132 -149,-124l-1238 115z"/>
     <path class="fil9" d="M190047 43553l-3473 -2079 -20 -12c-339,-204 -743,-154 -901,110l-376 628 -1 0 -2561 4279 1 0 -82 136c-341,571 -1156,2603 -870,3316l-236 394 20 12 -16 28 -162 -97c-70,-42 -160,-20 -202,50l-682 1140c-42,70 -19,160 50,201l3386 2027c69,42 160,19 202,-51l682 -1139c41,-70 19,-160 -51,-202l-162 -97 252 -422c764,-84 2170,-1762 2512,-2333l81 -136 33 20 2561 -4279 -32 -20 376 -628c118,-198 65,-461 -112,-665 -59,-69 -132,-130 -217,-181z"/>
     <path class="fil9" d="M190737 35794c0,-44 -35,-80 -79,-81l-378 -5 0 0 -394 -6 -632 -9 -1722 -179 -676 -71 -1104 -116 -390 -40 -2197 -361 -364 14 -9 632 -29 2010 -10 712 364 25 2206 -298 391 -29 1107 -84 678 -53 1743 -130 1120 16 267 4c44,0 80,-35 81,-79l27 -1872z"/>
     <path class="fil10" d="M210229 22540c0,0 0,0 0,0l-2348 -673c0,0 0,0 0,0l-386 -111c-247,-71 -499,-35 -707,81 -208,115 -372,310 -443,557l-151 528 -1344 4690 -20 72c-774,2699 -812,5557 -111,8276l244 70 142 41 401 115 61 17 0 0 525 151c2035,-1936 3516,-4380 4290,-7079l20 -72 64 -223 1431 -4995c142,-494 -144,-1009 -637,-1150l-1031 -295z"/>
     <path class="fil11" d="M194198 22156l-2821 426c-161,24 -273,174 -248,335l1148 7615c36,235 117,452 234,643 117,190 269,355 446,486 215,158 468,259 737,304l18 124 28 181 -44 7c-55,8 -93,59 -85,115l129 851c8,55 60,93 115,85l1144 -173c55,-8 93,-60 85,-115l-128 -851c-9,-55 -60,-93 -116,-85l-43 7 -46 -305c646,-326 1045,-1033 931,-1787l-1148 -7615c-25,-161 -175,-272 -336,-248z"/>
     <path class="fil8" d="M177202 27804l-2924 -108c-167,-7 -308,124 -314,291l-293 7893c-9,244 32,478 113,692 82,214 204,409 357,575 187,200 422,350 685,447l-5 128 -7 188 -45 -2c-57,-2 -106,43 -108,100l-32 882c-3,58 42,106 99,108l1186 44c58,2 106,-43 108,-100l33 -882c2,-57 -43,-106 -100,-108l-45 -1 12 -316c713,-206 1249,-842 1278,-1624l293 -7893c6,-167 -124,-308 -291,-314z"/>
     <path class="fil11" d="M204482 46384c781,-450 2382,-918 2920,-1542 538,-624 582,-1326 395,-1680 -187,-354 -1176,-1868 -1775,-2646 -407,-529 -844,-1146 -1193,-1607 -173,-387 -348,-723 -504,-929 -504,-668 -713,-603 -715,-603l0 0 -528 279c67,170 217,413 402,682 122,309 296,685 398,1030 168,565 -427,923 -1099,1300 -673,377 -1265,450 -1547,164l10 25c-343,-427 -590,-832 -853,-1084 -352,-336 -612,-373 -612,-373l0 0 0 0 -503 416c0,0 573,942 1022,1649 448,706 712,1848 999,2678 23,65 46,129 71,195 290,770 722,1557 1172,2015 489,496 1159,481 1940,31z"/>
     <path class="fil5" d="M177589 28349l3125 -247 18 -1c305,-24 537,-237 518,-475l-44 -565 1 0 -305 -3849 -1 0 -9 -122c-41,-514 -439,-2162 -939,-2483l-29 -355 -18 1 -1 -24 145 -12c63,-5 110,-60 105,-122l-81 -1026c-5,-62 -60,-109 -123,-104l-3045 240c-63,5 -110,60 -105,123l81 1025c5,63 60,110 123,105l145 -12 30 380c-443,396 -578,2086 -537,2600l9 121 -29 3 305 3850 29 -3 45 565c14,179 165,321 369,370 67,17 141,23 218,17z"/>
     <path class="fil10" d="M169833 23584c0,0 0,0 0,0l2148 -1317c0,0 0,0 0,0l352 -217c226,-138 374,-355 432,-593 57,-239 23,-499 -115,-725l-297 -484 -2630 -4290 -40 -65c-1514,-2469 -3660,-4489 -6217,-5851l0 0 -223 137 -130 80 -366 225 -57 34 -480 294c54,2897 881,5726 2395,8195l40 65 125 205 2801 4569c277,451 867,592 1319,316l943 -578z"/>
     <path class="fil11" d="M165160 28762c224,1102 145,3181 670,4064 526,883 1339,1212 1831,1131 493,-81 2676,-652 3832,-1054 787,-273 1691,-546 2374,-777 526,-52 992,-125 1298,-228 989,-333 996,-606 996,-608l0 0 -122 -735c-227,12 -573,93 -965,206 -414,23 -927,79 -1377,64 -734,-25 -922,-870 -1103,-1815 -180,-944 -33,-1675 418,-1895l-34 2c641,-236 1218,-369 1619,-580 538,-284 684,-577 684,-577l-1 0 1 0 -294 -760c0,0 -1341,306 -2354,557 -1012,252 -2469,113 -3563,125 -86,1 -172,3 -259,6 -1026,39 -2128,239 -2847,591 -781,382 -1028,1182 -804,2283z"/>
    </g>
    <g>
     <path class="fil12" d="M171415 109900l-3698 0c-269,0 -502,-184 -565,-445l-953 -3987 6733 0 -953 3987c-63,261 -296,445 -564,445z"/>
     <path class="fil12" d="M181429 109900l-3699 0c-268,0 -501,-184 -564,-445l-953 -3987 6733 0 -953 3987c-63,261 -296,445 -564,445z"/>
     <path class="fil12" d="M198402 109900l-3698 0c-269,0 -502,-184 -564,-445l-954 -3987 6733 0 -953 3987c-63,261 -296,445 -564,445z"/>
     <path class="fil12" d="M208415 109900l-3698 0c-268,0 -501,-184 -564,-445l-953 -3987 6733 0 -953 3987c-63,261 -296,445 -565,445z"/>
     <path class="fil13" d="M210585 106288l-33378 0 -7395 -65493 52649 0 -6892 61040c-286,2536 -2432,4453 -4984,4453z"/>
     <path class="fil14" d="M196388 106288l-28897 0c-2553,0 -4698,-1917 -4985,-4453l-6891 -61040 52649 0 -6892 61040c-286,2536 -2432,4453 -4984,4453z"/>
     <g>
      <path class="fil15" d="M184986 62033c144,30 291,47 430,91 708,225 1251,651 1603,1316 363,687 739,1366 1110,2049 5,10 14,18 26,34 516,-269 1032,-539 1566,-817 -18,37 -26,59 -38,79 -866,1427 -1732,2855 -2596,4284 -31,51 -65,69 -124,69 -1256,-12 -2511,-22 -3767,-30 -393,-3 -787,-1 -1180,-1 -3,-9 -5,-18 -8,-27 457,-295 915,-590 1378,-889 -110,-203 -216,-398 -322,-593 -557,-1024 -1111,-2051 -1674,-3072 -310,-562 -676,-1085 -1143,-1531 -413,-395 -885,-693 -1428,-877 -14,-5 -27,-9 -40,-15 -5,-2 -8,-8 -29,-32 442,0 867,2 1291,0 1362,-8 2725,-17 4088,-27 43,0 85,-7 128,-11 243,0 486,0 729,0z"/>
      <path class="fil15" d="M170283 73854c27,-117 37,-242 85,-351 117,-266 248,-526 382,-785 366,-707 737,-1412 1105,-2118 13,-26 26,-52 43,-86 -485,-380 -969,-758 -1475,-1153 56,0 88,0 120,0 1603,-15 3205,-29 4808,-42 97,-1 214,-31 288,12 73,43 104,159 150,245 798,1479 1596,2957 2394,4436 8,15 16,29 34,63 -499,-270 -980,-530 -1470,-795 -18,27 -37,52 -52,77 -622,1015 -1243,2030 -1862,3046 -39,64 -78,93 -156,91 -367,-11 -735,-3 -1101,-25 -555,-34 -1111,-91 -1619,-332 -747,-352 -1306,-895 -1590,-1688 -43,-117 -57,-246 -84,-369 0,-75 0,-150 0,-226z"/>
      <path class="fil15" d="M192503 74097c-22,122 -38,245 -68,364 -121,480 -413,839 -803,1127 -486,357 -1041,556 -1621,691 -674,158 -1359,197 -2049,175 -60,-2 -98,-15 -130,-74 -748,-1391 -1499,-2780 -2249,-4169 -8,-15 -13,-31 -23,-54 1581,-965 3161,-1929 4746,-2897 36,69 69,133 101,196 655,1290 1308,2579 1965,3867 69,135 94,277 112,423 3,31 12,61 19,91 0,87 0,174 0,260z"/>
      <path class="fil15" d="M184464 75187c24,450 46,880 69,1310 5,104 13,208 17,311 1,46 20,63 63,61 26,-1 52,0 78,0 1218,0 2436,1 3654,-1 529,0 1057,-25 1579,-126 776,-152 1473,-464 2052,-1013 14,-13 29,-25 52,-30 -127,238 -254,477 -381,715 -834,1561 -1666,3123 -2503,4682 -401,746 -1051,1147 -1867,1295 -163,29 -333,21 -500,21 -718,2 -1435,2 -2153,-1 -78,0 -105,22 -107,101 -10,437 -24,873 -38,1310 -4,126 -13,253 -21,401 -87,-158 -166,-300 -244,-443 -738,-1350 -1476,-2701 -2212,-4052 -15,-27 -19,-74 -6,-99 812,-1468 1625,-2935 2439,-4402 4,-7 10,-14 29,-40z"/>
      <path class="fil15" d="M170692 75673c212,168 420,352 647,509 436,302 925,480 1445,574 375,68 752,70 1132,67 682,-5 1365,4 2048,8 819,5 1637,11 2456,17 593,4 1186,9 1779,13 23,0 45,0 74,0 0,1856 0,3706 0,5565 -39,3 -78,6 -118,6 -1032,1 -2065,2 -3098,-1 -353,-1 -706,2 -1058,-25 -606,-48 -1194,-176 -1711,-522 -238,-160 -432,-356 -571,-615 -996,-1851 -1999,-3698 -2999,-5547 -11,-20 -21,-39 -26,-49z"/>
      <path class="fil15" d="M178869 69581c-1597,-946 -3187,-1888 -4784,-2834 125,-194 246,-383 368,-571 710,-1093 1420,-2185 2128,-3279 105,-161 260,-262 417,-358 603,-373 1220,-347 1843,-54 481,226 879,563 1239,948 537,574 961,1227 1306,1932 24,50 22,87 -8,135 -827,1346 -1653,2693 -2480,4040 -7,11 -16,23 -29,41z"/>
     </g>
    </g>
    <g>
     <g>
      <g>
       <polygon class="fil16" points="151891,109333 143878,72259 145444,72259 153458,109333 "/>
       <polygon class="fil16" points="141601,109333 133587,72259 135154,72259 143167,109333 "/>
       <polygon class="fil16" points="135923,79430 146213,79430 145963,78274 135673,78274 "/>
       <polygon class="fil16" points="137650,87409 147941,87409 147691,86253 137400,86253 "/>
       <polygon class="fil16" points="139378,95388 149668,95388 149418,94232 139128,94232 "/>
       <polygon class="fil16" points="141106,103368 151396,103368 151146,102212 140855,102212 "/>
      </g>
      <polygon class="fil16" points="145286,73009 133587,73009 133587,72259 145286,72259 "/>
      <g>
       <polygon class="fil9" points="123666,109333 135355,72259 133788,72259 122100,109333 "/>
       <polygon class="fil9" points="133957,109333 145645,72259 144079,72259 132390,109333 "/>
       <polygon class="fil9" points="142599,79430 132309,79430 132673,78274 142964,78274 "/>
       <polygon class="fil9" points="140080,87409 129790,87409 130155,86253 140445,86253 "/>
       <polygon class="fil9" points="137562,95388 127271,95388 127636,94232 137927,94232 "/>
       <polygon class="fil9" points="135043,103368 124753,103368 125118,102212 135408,102212 "/>
      </g>
     </g>
     <g>
      <path class="fil17" d="M138774 11549l5700 -10526c466,-861 1498,-1243 2412,-894l27699 10565c272,104 391,424 252,681l-10801 19945c-139,257 -472,332 -708,161l-23985 -17423c-792,-575 -1035,-1648 -569,-2509z"/>
      <path class="fil18" d="M141598 19583c0,0 42,-1382 65,-1664 24,-283 341,-1308 500,-1513 159,-205 1000,-843 1048,-793 48,51 168,354 153,467 -15,114 -26,264 171,745 196,480 449,842 314,1250 -136,407 -184,599 -485,914 -301,314 -505,860 -511,935l-1255 -341z"/>
      <path class="fil19" d="M131517 33487c0,0 1539,7160 3600,3661 1284,-2180 5287,-9058 5287,-9058l3004 -8762c0,0 -1183,-523 -1950,-250l-3933 7509c0,0 -6148,5695 -6008,6900z"/>
      <path class="fil16" d="M131053 84039l0 2209 3139 0c0,0 449,-800 -1039,-1169l-219 -1040 -1881 0z"/>
      <path class="fil16" d="M137510 84039l0 2209 3112 0c0,0 -134,-767 -1039,-1169l-296 -1040 -1777 0z"/>
      <path class="fil16" d="M131767 47667c0,0 -594,7116 -615,12918 -21,5803 -367,23960 -367,23960l2343 0c0,0 2417,-15630 3295,-19360 878,-3731 3162,-17448 3162,-17448l-7818 -70z"/>
      <path class="fil16" d="M135631 54625c0,0 1261,11079 1349,12820 88,1740 409,17091 409,17091 0,0 2196,59 2196,0 0,-60 2070,-15829 2338,-20118 268,-4290 957,-10964 993,-11654 76,-1449 -719,-3868 -719,-3868l-3876 -371 -2690 6100z"/>
      <path class="fil18" d="M156443 27699c0,0 1046,-903 1270,-1077 224,-174 974,-780 1232,-801 259,-22 963,310 1004,417 325,846 463,1041 242,1510 -221,470 -723,414 -1115,590 -392,175 -566,270 -1001,260 -436,-9 -976,210 -1035,257l-597 -1156z"/>
      <path class="fil18" d="M140028 22085c491,295 694,1118 694,1118 0,0 192,937 312,1649 120,712 727,1268 654,1457 -74,188 -486,192 -484,455 3,263 -101,1021 -96,1543 6,523 -519,603 -1006,646 -488,43 -1125,162 -1235,388 -110,227 -239,2534 -239,2534l-3577 -1404c0,0 379,-1153 342,-2155 -38,-1002 -89,-2202 -89,-2202 0,0 202,-2179 1544,-3057 1342,-878 3180,-972 3180,-972z"/>
      <path class="fil20" d="M139065 23221c337,-41 1138,-12 1657,-18 519,-5 850,-684 583,-1057 -266,-372 -605,-1044 -605,-1044 0,0 -564,494 -1658,18 -1093,-477 -3158,-455 -3854,1092 0,0 -1383,577 -1446,1666 -64,1090 172,1513 699,2245 534,741 952,2193 952,2193 0,0 649,42 1286,-2 638,-44 1228,-989 1486,-1442 0,0 -934,-704 -703,-1419 230,-716 1172,-388 1288,-51 116,336 459,820 459,820l414 34c0,0 101,-1037 57,-1682 -45,-646 -615,-1353 -615,-1353z"/>
      <path class="fil19" d="M135415 30031c0,0 1530,279 2280,379 751,100 1852,0 1852,0 0,0 3225,2596 3307,4998 82,2402 -206,13650 -124,14450 0,0 -748,1742 -6074,1594 -3094,-86 -5325,-979 -5325,-979 0,0 -167,-6749 -184,-8853 -68,-8366 352,-10047 1403,-11097 815,-815 2865,-492 2865,-492z"/>
      <path class="fil19" d="M138917 30464c-1119,-345 -3670,3119 203,4339 3102,977 11806,-900 11806,-900l6928 -5043c0,0 -415,-1225 -1134,-1605l-6634 3511c0,0 -8488,527 -11169,-302z"/>
     </g>
    </g>
    <g>
     <g>
      <g>
       <polygon class="fil16" points="221566,109333 229579,72259 228013,72259 220000,109333 "/>
       <polygon class="fil16" points="231856,109333 239870,72259 238303,72259 230290,109333 "/>
       <polygon class="fil16" points="237534,79430 227244,79430 227494,78274 237785,78274 "/>
       <polygon class="fil16" points="235807,87409 225516,87409 225767,86253 236057,86253 "/>
       <polygon class="fil16" points="234079,95388 223789,95388 224039,94232 234329,94232 "/>
       <polygon class="fil16" points="232352,103368 222061,103368 222312,102212 232602,102212 "/>
      </g>
      <polygon class="fil16" points="228171,73009 239870,73009 239870,72259 228171,72259 "/>
      <g>
       <polygon class="fil9" points="249791,109333 238103,72259 239669,72259 251357,109333 "/>
       <polygon class="fil9" points="239501,109333 227812,72259 229379,72259 241067,109333 "/>
       <polygon class="fil9" points="230859,79430 241149,79430 240784,78274 230494,78274 "/>
       <polygon class="fil9" points="233377,87409 243667,87409 243302,86253 233012,86253 "/>
       <polygon class="fil9" points="235895,95388 246186,95388 245821,94232 235531,94232 "/>
       <polygon class="fil9" points="238414,103368 248704,103368 248339,102212 238049,102212 "/>
      </g>
     </g>
     <g>
      <path class="fil18" d="M238752 61610c-283,-1645 -452,-4860 -597,-7973 2016,30 4032,45 6048,51 -386,3522 -901,8476 -572,12490 418,5089 -598,11407 -1016,15166 -417,3759 0,5325 0,5325l-3787 0c0,0 1044,-1253 1462,-1879 418,-627 626,-4595 522,-6161 -104,-1566 -1538,-13991 -2060,-17019z"/>
      <path class="fil18" d="M234716 84790c418,-627 627,-4595 522,-6161 -104,-1566 -1044,-13991 -1566,-17019 -363,-2107 -148,-5225 -88,-8018 975,0 1951,0 2925,19 1027,21 2053,36 3080,47 -460,3521 -1175,8484 -1038,12520 225,6602 -1092,11407 -1509,15166 -418,3759 0,5325 0,5325l-1396 -441 -2717 157 -1650 284c0,0 3020,-1253 3437,-1879z"/>
      <path class="fil16" d="M240333 84529c522,-105 707,104 1177,417 469,313 991,313 991,313l0 1410 -4931 0 2763 -2140z"/>
      <path class="fil16" d="M234716 84790c0,0 53,488 836,709 783,220 1316,-427 1316,-427l174 1597 -6188 38 3862 -1917z"/>
     </g>
     <g>
      <path class="fil18" d="M236991 28908c0,0 -1841,-2323 -3543,-3628 -3376,-2589 -6760,-3031 -6760,-3031l793 -1825c0,0 6582,1869 9036,3279 2455,1411 4324,5374 4324,5374l-3850 -169z"/>
      <path class="fil21" d="M238307 33961c0,0 -1099,-5498 -3985,-7770 -3357,-2642 -6078,-3180 -6078,-3180l711 -2175c0,0 5588,548 9438,4014 3850,3465 5093,8282 5093,8282l-5179 829z"/>
      <path class="fil18" d="M226305 19691c-600,-101 -2273,-623 -2715,-679 -443,-55 -880,618 -1091,1067 -211,448 254,751 947,856 693,105 1369,559 1551,845 -575,171 -1146,58 -1046,334 100,275 589,350 1355,342 0,0 475,40 620,-34 146,-74 762,-173 762,-173 0,0 798,-78 954,-83 0,0 319,-1603 -3,-1696 -322,-94 -734,-677 -1334,-779z"/>
     </g>
     <path class="fil22" d="M225570 5100l7714 9154c630,749 609,1849 -50,2572l-19961 21919c-196,215 -537,209 -725,-14l-14616 -17346c-188,-223 -137,-561 109,-717l24986 -15955c825,-527 1912,-361 2543,387z"/>
     <g>
      <path class="fil18" d="M229676 32193c0,0 -2852,998 -4994,881 -2141,-116 -7259,-1481 -7259,-1481l-420 1945c0,0 6437,2321 9253,2607 2816,285 6646,-1844 6646,-1844l-3226 -2108z"/>
      <path class="fil21" d="M229475 32104c-5781,1225 -11051,-170 -11051,-170l-321 2122c5073,3427 13259,2902 17550,875 2521,-1190 2537,-2562 2537,-2562l-3350 -3255c0,0 -2281,2336 -5365,2990z"/>
      <path class="fil18" d="M216421 30619c-856,-549 -1495,-819 -1745,-561 -173,178 671,561 949,960 -372,78 -1051,34 -1602,-248 -624,-319 -1178,-344 -1269,144 -90,487 -127,1289 265,1502 391,213 2055,764 2601,1032 547,267 1221,34 1538,145 316,112 991,-1376 991,-1376 -123,-95 -726,-624 -726,-624 0,0 -443,-440 -518,-585 -75,-144 -484,-389 -484,-389z"/>
     </g>
     <path class="fil18" d="M233412 24681c-29,546 357,149 423,366 63,218 199,1759 619,2109 420,350 1202,-651 1375,-275 177,376 -389,2868 -389,2868l4229 172 -202 -3485c0,0 280,-1395 -221,-3239 -502,-1843 -3905,-3027 -3905,-3027 -155,-95 -360,-830 -625,-556 -414,427 -575,1895 -705,2627 -129,735 -574,1894 -599,2440z"/>
     <path class="fil18" d="M233412 24681c-29,546 609,246 675,464l-76 -2904c-129,735 -574,1894 -599,2440z"/>
     <path class="fil23" d="M234249 20275c43,775 1109,393 1174,1195 65,803 -344,1729 -368,1863 -23,133 349,753 349,753 0,0 137,-862 556,-1033 708,-289 1083,304 636,1086 -84,147 -414,270 -459,393 -193,530 -40,883 276,1469 389,723 284,1246 284,1246 785,35 2815,134 2815,134 308,-824 711,-1749 1209,-2413 506,-675 1263,-2124 1043,-3224 -213,-1066 -938,-1468 -938,-1468 -690,-1360 -2693,-1975 -3999,-1908 -2032,105 -2578,1907 -2578,1907z"/>
     <path class="fil16" d="M234019 49709c-168,2910 -1284,4813 -2109,7838 -651,2388 -1375,6463 -1375,6463 0,0 3767,1185 7934,1968 4167,783 9256,-1143 9256,-1143 0,0 -1330,-5867 -1788,-10176 -459,-4309 -1215,-6080 -1215,-6080l-10703 1130z"/>
     <path class="fil21" d="M244722 48579c0,0 -315,-3396 -775,-8843 -461,-5447 -413,-10628 -3266,-11591 -290,-98 -885,-253 -2402,-127 -1532,128 -3124,639 -3124,639 0,0 -1541,2060 -1826,4533 -285,2474 690,16519 690,16519 0,0 1239,907 5565,930 4326,23 5138,-2060 5138,-2060z"/>
     <path class="fil23" d="M234249 20275c-1025,481 523,2849 1155,3811 0,0 -102,-1606 1548,-1697 0,0 -2105,-2395 -2703,-2114z"/>
     <path class="fil23" d="M236137 24532c0,0 -1150,2637 -2027,3724 -627,778 -523,2696 2384,3209 3117,550 6967,-1284 6967,-1284 0,0 -1008,-4859 -1008,-7242 0,-2384 -1192,-4217 -3850,-4126 0,0 183,2384 -459,4493 -642,2108 -2007,1226 -2007,1226z"/>
     <path class="fil23" d="M236494 31465c1192,733 92,4217 3209,5409 2569,982 4473,-254 4950,-3026 459,-2658 -2383,-4950 -2200,-10909 62,-2025 -1375,-2200 -2475,-275 -1100,1925 -3484,8801 -3484,8801z"/>
    </g>
   </g>
   <path class="fil13" d="M208378 119070c0,0 2218,-3882 2579,-4282 2281,-2525 5307,-2553 8387,-1915 891,184 3251,1424 4107,1253 667,-134 1467,-2668 3602,-2535 2134,133 2263,2668 2263,2668 0,0 3189,-837 5778,1751 1957,1958 903,3524 903,3524l-27619 -464z"/>
   <path class="fil24" d="M187969 122107c0,0 2225,-3896 2588,-4298 2289,-2533 5325,-2561 8417,-1921 894,185 3262,1429 4121,1257 669,-134 1473,-2678 3615,-2544 2141,134 2271,2678 2271,2678 0,0 1343,-2956 3485,-2683 2142,273 2142,2268 535,3747 0,0 3414,-1024 6728,562 3313,1586 1730,3667 1730,3667l-33490 -465z"/>
   <path class="fil25" d="M112773 112939c0,0 -2395,-4192 -2785,-4625 -2463,-2726 -5730,-2756 -9057,-2068 -962,200 -3510,1538 -4435,1353 -720,-144 -1584,-2881 -3889,-2737 -2305,144 -2444,2881 -2444,2881 0,0 -1446,-3180 -3751,-2886 -2305,293 -2305,2440 -576,4032 0,0 -3673,-1102 -7239,605 -3565,1707 -1862,3945 -1862,3945l36038 -500z"/>
   <path class="fil24" d="M127510 118078c4,-1967 -621,-4047 -2243,-5154 -1642,-1119 -4275,-786 -5174,986 -1844,-1949 -2811,-3535 -6530,-3261 -3719,274 -3374,1874 -5411,4140 -1368,-406 -3068,-731 -4040,315 -200,215 -363,486 -633,601 -602,257 -1164,-386 -1665,-808 -1294,-1086 -3329,-810 -4703,172 -1073,767 -1835,1864 -2511,3009l32910 0z"/>
  </g>
 </g>
</svg>
