<?xml version="1.0" encoding="UTF-8"?>
<!DOCTYPE svg PUBLIC "-//W3C//DTD SVG 1.1//EN" "http://www.w3.org/Graphics/SVG/1.1/DTD/svg11.dtd">
<!-- Creator: CorelDRAW X8 -->
<svg xmlns="http://www.w3.org/2000/svg" xml:space="preserve" width="86.8168mm" height="13.836mm" version="1.1" style="shape-rendering:geometricPrecision; text-rendering:geometricPrecision; image-rendering:optimizeQuality; fill-rule:evenodd; clip-rule:evenodd"
viewBox="0 0 8682 1384"
 xmlns:xlink="http://www.w3.org/1999/xlink">
 <defs>
  <style type="text/css">
   <![CDATA[
    .fil1 {fill:#00CCFF}
    .fil0 {fill:#336699}
   ]]>
  </style>
 </defs>
 <g id="Camada_x0020_1">
  <metadata id="CorelCorpID_0Corel-Layer"/>
  <g id="_2427430327744">
   <g>
    <path class="fil0" d="M2047 618l-116 0 0 -303c164,0 290,-23 290,159 0,98 -74,144 -174,144zm-347 -433l0 1026c0,84 231,74 231,0l0 -405c231,0 192,60 326,383 46,112 190,88 267,51 -20,-85 -150,-462 -260,-492 32,-44 18,-17 66,-49 24,-17 49,-41 68,-62 112,-127 143,-510 -351,-510 -135,0 -347,-30 -347,58z"/>
    <path class="fil0" d="M6918 387l29 0c6,65 102,311 130,434l-289 0c29,-124 125,-368 130,-434zm-477 867c102,9 193,60 238,-80 66,-204 -50,-165 471,-165 1,64 26,117 44,172 42,133 139,83 259,73 0,-101 -279,-850 -334,-1025 -38,-122 -26,-102 -273,-102 -69,0 -108,186 -128,247 -54,162 -277,756 -277,880z"/>
    <path class="fil0" d="M2669 228l0 911c0,52 12,80 29,115l621 0c57,-243 -8,-188 -419,-188l0 -303c426,0 361,36 361,-174 -111,-26 -227,-14 -361,-14l0 -260 419 0c19,-232 99,-188 -549,-188 -68,0 -101,34 -101,101z"/>
    <path class="fil0" d="M4822 705c0,245 93,443 260,521 193,90 564,55 564,-116l-14 -130c-67,15 -84,51 -157,74 -215,69 -392,-48 -392,-291l0 -130c0,-144 99,-318 231,-318 175,0 165,28 303,101 211,-398 -795,-511 -795,289z"/>
    <path class="fil0" d="M3449 647c0,235 21,481 266,587 97,42 193,47 298,35 281,-30 246,-132 246,-246 0,-61 -33,-39 -64,-23 -32,17 -52,33 -85,48 -199,88 -415,0 -415,-372 0,-364 272,-433 463,-303 115,78 101,14 101,-102 0,-228 -810,-286 -810,376z"/>
    <path class="fil0" d="M5805 141c0,176 -26,1014 15,1099 84,40 448,14 578,14 21,-90 21,-97 0,-188l-361 0 0 -881c0,-96 -207,-53 -232,-44z"/>
    <path class="fil0" d="M8205 387l0 275c-263,0 -304,-31 -304,101 0,118 72,87 304,87l0 274c0,78 188,77 188,0l0 -274c220,0 277,13 289,-33l0 -141c-108,-25 -161,-14 -289,-14l0 -275c0,-73 -188,-73 -188,0z"/>
    <path class="fil0" d="M4418 141l0 1099c82,39 149,39 231,0l0 -1099c-69,-16 -162,-27 -231,0z"/>
   </g>
   <g>
    <path class="fil1" d="M1082 356l149 -1 -11 -124c-108,-73 -156,-169 -393,-219 -28,-6 -56,-10 -84,-12l-104 0c-429,35 -771,487 -589,951 226,574 1051,578 1284,5 42,-103 48,-122 48,-264l-173 0c0,583 -796,709 -999,192 -175,-446 304,-884 753,-638 29,15 42,26 68,47 37,29 30,26 51,63z"/>
    <path class="fil0" d="M1220 231l11 124 -149 1 -173 2 0 149 473 0 0 -461c-203,0 -162,-25 -162,185z"/>
   </g>
  </g>
 </g>
</svg>
